# xmcd
#
# Track frame offsets:
# 222
# 8947
# 17642
# 24062
# 34187
# 40615
# 55815
# 81525
# 87980
# 93867
# 101400
# 104607
# 116540
# 126832
# 137797
# 147557
# 153455
# 163742
# 183122
# 192640
# 204672
#
# Disc length: 2836 seconds
#
# Revision: 0
# Processed by: cddbd v1.5.1PL0 Copyright (c) Steve Scherf et al.
# Submitted via: Audion 3.0.2 (http://www.panic.com/audion/)
#
DISCID=1b0b1215
DTITLE=Davey Graham - Playing in Traffic
DYEAR=1900
DGENRE=
TTITLE0=Jinaco
TTITLE1=Amalia
TTITLE2=Joy of my heart
TTITLE3=Majuun
TTITLE4=Aydede
TTITLE5=Sita Ram
TTITLE6=Arioso
TTITLE7=Rain and Snow
TTITLE8=Kitty's Rambles
TTITLE9=Bury My Body
TTITLE10=The Ram in the Thicket
TTITLE11=Don't let your deal go down
TTITLE12=Buhaina Chant
TTITLE13=The Preacher
TTITLE14=Somethin'
TTITLE15=The King of Denmark's Galliard
TTITLE16=Guardame Las Vacas
TTITLE17=Capricho Arabe
TTITLE18=Hesamalo
TTITLE19=Jenra
TTITLE20=Ramkali
EXTD=
EXTT0=
EXTT1=
EXTT2=
EXTT3=
EXTT4=
EXTT5=
EXTT6=
EXTT7=
EXTT8=
EXTT9=
EXTT10=
EXTT11=
EXTT12=
EXTT13=
EXTT14=
EXTT15=
EXTT16=
EXTT17=
EXTT18=
EXTT19=
EXTT20=
PLAYORDER=
